<svg xmlns="http://www.w3.org/2000/svg" width="381pt" height="150pt" viewBox="0 0 481 291" version="1.1" xmlns:xlink="http://www.w3.org/1999/xlink">
  <g id="surface2" transform="matrix(1,0,0,1,0,0)" data-tpl_matrix="1,0,0,1,0,0">
    <path style="stroke:white;none;fill-rule:evenodd;fill:rgb(100%,100%,100%);fill-opacity:0;stroke-width:3" d="M 240.351562 37.449219 C 234.148438 37.449219 228.066406 38.398438 222.101562 40.300781 C 202.832031 46.433594 183.515625 52.617188 164.148438 58.851562 C 144.816406 65.082031 125.683594 71.285156 106.75 77.449219 L 86.949219 83.851562 C 83.351562 85.050781 80.214844 86.867188 77.550781 89.300781 C 74.882812 91.765625 72.800781 94.667969 71.300781 98 C 69.832031 101.332031 69.082031 104.917969 69.050781 108.75 C 69.050781 132.050781 69.050781 155.367188 69.050781 178.699219 C 69.082031 182.566406 69.851562 186.183594 71.351562 189.550781 C 72.851562 192.917969 74.933594 195.832031 77.601562 198.300781 C 80.300781 200.765625 83.449219 202.601562 87.050781 203.800781 L 102.601562 208.800781 C 122.199219 215.167969 142 221.582031 162 228.050781 C 182.035156 234.515625 202.015625 240.933594 221.949219 247.300781 C 228.050781 249.234375 234.167969 250.199219 240.300781 250.199219 C 246.464844 250.234375 252.515625 249.316406 258.449219 247.449219 C 278.851562 240.984375 299.285156 234.433594 319.75 227.800781 C 340.214844 221.167969 360.464844 214.601562 380.5 208.101562 L 394.398438 203.550781 C 397.867188 202.417969 400.898438 200.632812 403.5 198.199219 C 406.132812 195.734375 408.183594 192.851562 409.648438 189.550781 C 411.117188 186.25 411.867188 182.734375 411.898438 179 C 411.933594 170.832031 411.933594 162.667969 411.898438 154.5 L 411.898438 109.351562 C 411.898438 105.214844 411.148438 101.449219 409.648438 98.050781 C 408.183594 94.617188 406.050781 91.667969 403.25 89.199219 C 400.484375 86.765625 397.132812 84.898438 393.199219 83.601562 C 381.632812 79.867188 370.066406 76.117188 358.5 72.351562 C 342.367188 67.117188 326.066406 61.851562 309.601562 56.550781 C 293.132812 51.214844 276.683594 45.917969 260.25 40.648438 C 253.582031 38.515625 246.949219 37.449219 240.351562 37.449219 " />
    <path style="stroke:none;fill-rule:evenodd;fill:rgb(0.000000%,0.000000%,0.000000%);fill-opacity:1" d="M 405.050781 143.949219 C 405.050781 154.449219 405.050781 164.949219 405.050781 175.449219 C 405.015625 179.183594 404.234375 182.699219 402.699219 186 C 401.167969 189.300781 399.015625 192.183594 396.25 194.648438 C 393.484375 197.082031 390.25 198.898438 386.550781 200.101562 C 365.183594 206.699219 343.816406 213.300781 322.449219 219.898438 C 301.082031 226.464844 279.699219 233 258.300781 239.5 C 252.332031 241.265625 246.300781 242.132812 240.199219 242.101562 C 234.132812 242.066406 228.117188 241.148438 222.148438 239.351562 C 179.683594 226.382812 137.25 213.351562 94.851562 200.25 C 91.015625 199.050781 87.683594 197.214844 84.851562 194.75 C 82.015625 192.285156 79.832031 189.367188 78.300781 186 C 76.734375 182.667969 75.933594 179.066406 75.898438 175.199219 C 75.898438 154.234375 75.898438 133.285156 75.898438 112.351562 C 75.933594 108.550781 76.734375 104.984375 78.300781 101.648438 C 79.832031 98.316406 82.015625 95.417969 84.851562 92.949219 C 87.648438 90.484375 90.949219 88.648438 94.75 87.449219 C 137.25 74.316406 179.765625 61.285156 222.300781 48.351562 C 228.535156 46.449219 234.816406 45.550781 241.148438 45.648438 C 247.484375 45.75 253.765625 46.75 260 48.648438 C 301.832031 61.484375 343.648438 74.351562 385.449219 87.25 C 389.515625 88.515625 393.015625 90.382812 395.949219 92.851562 C 398.851562 95.316406 401.082031 98.265625 402.648438 101.699219 C 404.25 105.101562 405.050781 108.832031 405.050781 112.898438 C 405.050781 123.234375 405.050781 133.582031 405.050781 143.949219 "/>
    <path style="stroke:none;fill-rule:evenodd;fill:rgb(64.705882%,61.176471%,53.333333%);fill-opacity:1" d="M 388.800781 157.800781 L 244.449219 157.800781 L 240.5 153.851562 L 236.550781 157.800781 L 92.148438 157.800781 L 92.148438 159.148438 L 236.550781 159.148438 L 240.5 163.101562 L 244.449219 159.148438 L 388.800781 159.148438 L 388.800781 157.800781 "/>
    <path style="stroke:none;fill-rule:evenodd;fill:rgb(100.000000%,100.000000%,100.000000%);fill-opacity:1" d="M11.484000 0L4.400000 0L4.400000-28.600000L11.484000-28.600000Q14.916000-28.600000 16.698000-26.972000Q18.480000-25.344000 18.480000-22.440000L18.480000-6.160000Q18.480000-3.212000 16.720000-1.606000Q14.960000 0 11.484000 0M15.400000-6.160000L15.400000-22.440000Q15.400000-23.848000 14.366000-24.904000Q13.332000-25.960000 11.484000-25.960000L7.480000-25.960000L7.480000-2.640000L11.484000-2.640000Q13.332000-2.640000 14.366000-3.674000Q15.400000-4.708000 15.400000-6.160000ZM29.700000 0L26.620000 0L26.620000-28.600000L29.700000-28.600000L29.700000 0ZM44.352000-11.880000L44.352000-14.520000L52.360000-14.520000L52.360000-5.500000Q52.360000-2.552000 50.556000-0.946000Q48.752000 0.660000 45.144000 0.660000Q41.536000 0.660000 39.688000-0.946000Q37.840000-2.552000 37.840000-5.500000L37.840000-23.100000Q37.840000-26.048000 39.644000-27.654000Q41.448000-29.260000 45.056000-29.260000Q48.664000-29.260000 50.512000-27.654000Q52.360000-26.048000 52.360000-23.100000L52.360000-20.680000L49.280000-20.680000L49.280000-23.100000Q49.280000-26.620000 45.100000-26.620000Q40.920000-26.620000 40.920000-23.100000L40.920000-5.500000Q40.920000-1.980000 45.100000-1.980000Q49.280000-1.980000 49.280000-5.500000L49.280000-11.880000L44.352000-11.880000ZM63.580000 0L60.500000 0L60.500000-28.600000L63.580000-28.600000L63.580000 0ZM86.020000 0L84.700000 0L83.556000-2.816000Q82.632000-1.232000 81.136000-0.286000Q79.640000 0.660000 77.836000 0.660000Q71.500000 0.660000 71.500000-5.500000L71.500000-9.900000Q71.500000-16.060000 77.836000-16.060000L82.940000-16.060000L82.940000-23.276000Q82.940000-24.860000 81.928000-25.740000Q80.916000-26.620000 78.936000-26.620000Q75.020000-26.620000 75.020000-23.276000L75.020000-20.680000L71.940000-20.680000L71.940000-23.100000Q71.940000-26.048000 73.678000-27.654000Q75.416000-29.260000 78.936000-29.260000Q82.456000-29.260000 84.238000-27.654000Q86.020000-26.048000 86.020000-23.100000L86.020000 0M82.940000-13.420000L77.836000-13.420000Q75.988000-13.420000 75.284000-12.496000Q74.580000-11.572000 74.580000-9.900000L74.580000-5.500000Q74.580000-3.828000 75.284000-2.904000Q75.988000-1.980000 77.836000-1.980000Q79.684000-1.980000 81.268000-3.410000Q82.852000-4.840000 82.940000-6.248000L82.940000-13.420000ZM108.372000-5.500000Q108.372000 0.660000 100.936000 0.660000Q93.500000 0.660000 93.500000-5.500000L93.500000-9.240000L96.580000-9.240000L96.580000-5.324000Q96.580000-3.740000 97.680000-2.860000Q98.780000-1.980000 100.936000-1.980000Q103.092000-1.980000 104.192000-2.860000Q105.292000-3.740000 105.292000-5.258000Q105.292000-6.776000 104.962000-7.678000Q104.632000-8.580000 103.620000-9.592000L95.876000-17.160000Q94.512000-18.524000 94.006000-19.822000Q93.500000-21.120000 93.500000-23.100000Q93.500000-26.048000 95.326000-27.654000Q97.152000-29.260000 100.848000-29.260000Q107.932000-29.260000 107.932000-23.100000L107.932000-19.360000L104.852000-19.360000L104.852000-23.276000Q104.852000-24.860000 103.818000-25.740000Q102.784000-26.620000 100.716000-26.620000Q98.648000-26.620000 97.614000-25.740000Q96.580000-24.860000 96.580000-23.320000Q96.580000-21.780000 96.888000-20.900000Q97.196000-20.020000 98.252000-19.052000L106.128000-11.484000Q107.404000-10.076000 107.888000-8.778000Q108.372000-7.480000 108.372000-5.500000ZM119.372000 0L116.292000 0L116.292000-28.600000L119.372000-28.600000L119.372000 0ZM141.812000 0L140.492000 0L139.348000-2.816000Q138.424000-1.232000 136.928000-0.286000Q135.432000 0.660000 133.628000 0.660000Q127.292000 0.660000 127.292000-5.500000L127.292000-9.900000Q127.292000-16.060000 133.628000-16.060000L138.732000-16.060000L138.732000-23.276000Q138.732000-24.860000 137.720000-25.740000Q136.708000-26.620000 134.728000-26.620000Q130.812000-26.620000 130.812000-23.276000L130.812000-20.680000L127.732000-20.680000L127.732000-23.100000Q127.732000-26.048000 129.470000-27.654000Q131.208000-29.260000 134.728000-29.260000Q138.248000-29.260000 140.030000-27.654000Q141.812000-26.048000 141.812000-23.100000L141.812000 0M138.732000-13.420000L133.628000-13.420000Q131.780000-13.420000 131.076000-12.496000Q130.372000-11.572000 130.372000-9.900000L130.372000-5.500000Q130.372000-3.828000 131.076000-2.904000Q131.780000-1.980000 133.628000-1.980000Q135.476000-1.980000 137.060000-3.410000Q138.644000-4.840000 138.732000-6.248000L138.732000-13.420000ZM153.252000 0L150.172000 0L150.172000-28.600000L153.252000-28.600000L153.252000 0ZM165.132000 0L162.052000 0L162.052000-28.600000L163.372000-28.600000L164.472000-25.740000Q166.584000-29.260000 170.324000-29.260000Q176.792000-29.260000 176.792000-23.100000L176.792000 0L173.712000 0L173.712000-23.100000Q173.712000-24.772000 172.986000-25.696000Q172.260000-26.620000 170.324000-26.620000Q168.388000-26.620000 166.760000-25.124000Q165.132000-23.628000 165.132000-22.220000L165.132000 0ZM184.492000-28.600000L194.172000-28.600000L194.172000-25.960000L187.572000-25.960000L187.572000-4.884000Q187.572000-3.652000 188.210000-2.816000Q188.848000-1.980000 190.014000-1.980000Q191.180000-1.980000 191.796000-2.794000Q192.412000-3.608000 192.412000-4.884000L192.412000-10.120000L195.492000-10.120000L195.492000-5.060000Q195.492000-2.288000 194.018000-0.814000Q192.544000 0.660000 190.036000 0.660000Q187.528000 0.660000 186.010000-0.814000Q184.492000-2.288000 184.492000-5.060000L184.492000-28.600000ZM215.952000-23.100000L215.952000-5.500000Q215.952000-2.552000 214.082000-0.946000Q212.212000 0.660000 208.494000 0.660000Q204.776000 0.660000 202.884000-0.946000Q200.992000-2.552000 200.992000-5.500000L200.992000-23.100000Q200.992000-26.048000 202.862000-27.654000Q204.732000-29.260000 208.450000-29.260000Q212.168000-29.260000 214.060000-27.654000Q215.952000-26.048000 215.952000-23.100000M212.872000-5.500000L212.872000-23.100000Q212.872000-26.620000 208.472000-26.620000Q204.072000-26.620000 204.072000-23.100000L204.072000-5.500000Q204.072000-1.980000 208.472000-1.980000Q212.872000-1.980000 212.872000-5.500000ZM227.172000 0L224.092000 0L224.092000-28.600000L227.172000-28.600000L227.172000 0ZM239.052000 0L235.972000 0L235.972000-28.600000L237.292000-28.600000L238.392000-25.784000Q239.316000-27.368000 240.812000-28.314000Q242.308000-29.260000 244.068000-29.260000Q248.512000-29.260000 249.744000-26.048000Q251.856000-29.260000 255.288000-29.260000Q261.492000-29.260000 261.492000-23.100000L261.492000 0L258.412000 0L258.412000-23.100000Q258.412000-26.620000 255.244000-26.620000Q253.396000-26.620000 251.834000-25.124000Q250.272000-23.628000 250.272000-22.220000L250.272000 0L247.192000 0L247.192000-23.100000Q247.192000-26.620000 244.024000-26.620000Q242.176000-26.620000 240.614000-25.190000Q239.052000-23.760000 239.052000-22.352000L239.052000 0ZM272.932000 0L269.852000 0L269.852000-28.600000L272.932000-28.600000L272.932000 0ZM295.724000-5.500000Q295.724000 0.660000 288.288000 0.660000Q280.852000 0.660000 280.852000-5.500000L280.852000-9.240000L283.932000-9.240000L283.932000-5.324000Q283.932000-3.740000 285.032000-2.860000Q286.132000-1.980000 288.288000-1.980000Q290.444000-1.980000 291.544000-2.860000Q292.644000-3.740000 292.644000-5.258000Q292.644000-6.776000 292.314000-7.678000Q291.984000-8.580000 290.972000-9.592000L283.228000-17.160000Q281.864000-18.524000 281.358000-19.822000Q280.852000-21.120000 280.852000-23.100000Q280.852000-26.048000 282.678000-27.654000Q284.504000-29.260000 288.200000-29.260000Q295.284000-29.260000 295.284000-23.100000L295.284000-19.360000L292.204000-19.360000L292.204000-23.276000Q292.204000-24.860000 291.170000-25.740000Q290.136000-26.620000 288.068000-26.620000Q286-26.620000 284.966000-25.740000Q283.932000-24.860000 283.932000-23.320000Q283.932000-21.780000 284.240000-20.900000Q284.548000-20.020000 285.604000-19.052000L293.480000-11.484000Q294.756000-10.076000 295.240000-8.778000Q295.724000-7.480000 295.724000-5.500000ZM302.984000-28.600000L312.664000-28.600000L312.664000-25.960000L306.064000-25.960000L306.064000-4.884000Q306.064000-3.652000 306.702000-2.816000Q307.340000-1.980000 308.506000-1.980000Q309.672000-1.980000 310.288000-2.794000Q310.904000-3.608000 310.904000-4.884000L310.904000-10.120000L313.984000-10.120000L313.984000-5.060000Q313.984000-2.288000 312.510000-0.814000Q311.036000 0.660000 308.528000 0.660000Q306.020000 0.660000 304.502000-0.814000Q302.984000-2.288000 302.984000-5.060000L302.984000-28.600000ZM334.444000-23.100000L334.444000-5.500000Q334.444000-2.552000 332.574000-0.946000Q330.704000 0.660000 326.986000 0.660000Q323.268000 0.660000 321.376000-0.946000Q319.484000-2.552000 319.484000-5.500000L319.484000-23.100000Q319.484000-26.048000 321.354000-27.654000Q323.224000-29.260000 326.942000-29.260000Q330.660000-29.260000 332.552000-27.654000Q334.444000-26.048000 334.444000-23.100000M331.364000-5.500000L331.364000-23.100000Q331.364000-26.620000 326.964000-26.620000Q322.564000-26.620000 322.564000-23.100000L322.564000-5.500000Q322.564000-1.980000 326.964000-1.980000Q331.364000-1.980000 331.364000-5.500000Z" transform="matrix(0.8938202179103392,0,0,0.8938202179103392,89.44438317315269,138.90730326865508)" data-str-tmatrix="1,0,0,1,106.35,140.3" data-str-color="rgb(255,255,255)" data-str-text="Digiasiaintoimisto" data-str-default_text="Enter Text" data-str-fontsize="44" data-str-font_family="Unica One" data-str-hastextedit="true" data-str-fonticons="true" data-str-bold="false" data-str-italic="false" data-str-data="" data-str-letter_spacing="0" data-str-use_path="false" data-str-txt_dy="0" data-lyt_name="line_1"/>
    <path style="stroke:none;fill-rule:evenodd;fill:rgb(100.000000%,100.000000%,100.000000%);fill-opacity:1" d="M7.637695-16.714844L11.150391-16.714844L11.150391-1.847656L12.783203-1.847656L12.783203 0L9.152344 0L9.152344-0.913086Q8.615234-0.365234 7.906250-0.059082Q7.197266 0.247070 6.294922 0.247070Q5.166992 0.247070 4.194824-0.145020Q3.222656-0.537109 2.508301-1.294434Q1.793945-2.051758 1.391113-3.152832Q0.988281-4.253906 0.988281-5.671875Q0.988281-6.960938 1.375000-8.019043Q1.761719-9.077148 2.470703-9.823730Q3.179688-10.570313 4.178711-10.983887Q5.177734-11.397461 6.402344-11.397461Q7.208008-11.397461 7.874023-11.220215Q8.540039-11.042969 9.152344-10.602539L9.152344-14.867188L7.637695-14.867188L7.637695-16.714844M6.552734-1.493164Q7.444336-1.493164 8.045898-1.756348Q8.647461-2.019531 9.152344-2.545898L9.152344-8.776367Q8.615234-9.227539 7.916992-9.431641Q7.218750-9.635742 6.488281-9.635742Q5.779297-9.635742 5.156250-9.372559Q4.533203-9.109375 4.065918-8.604492Q3.598633-8.099609 3.330078-7.369141Q3.061523-6.638672 3.061523-5.693359Q3.061523-4.662109 3.319336-3.877930Q3.577148-3.093750 4.039063-2.562012Q4.500977-2.030273 5.145508-1.761719Q5.790039-1.493164 6.552734-1.493164ZM14.609375-11.128906L18.240234-11.128906L18.240234-1.847656L19.916016-1.847656L19.916016 0L14.630859 0L14.630859-1.847656L16.220703-1.847656L16.220703-9.281250L14.609375-9.281250L14.609375-11.128906M15.844727-15.071289Q15.844727-15.350586 15.957520-15.603027Q16.070313-15.855469 16.258301-16.043457Q16.446289-16.231445 16.704102-16.344238Q16.961914-16.457031 17.251953-16.457031Q17.531250-16.457031 17.783691-16.344238Q18.036133-16.231445 18.224121-16.043457Q18.412109-15.855469 18.524902-15.603027Q18.637695-15.350586 18.637695-15.071289Q18.637695-14.781250 18.524902-14.523438Q18.412109-14.265625 18.224121-14.066895Q18.036133-13.868164 17.783691-13.755371Q17.531250-13.642578 17.251953-13.642578Q16.961914-13.642578 16.704102-13.755371Q16.446289-13.868164 16.258301-14.066895Q16.070313-14.265625 15.957520-14.523438Q15.844727-14.781250 15.844727-15.071289ZM29.895508-0.977539Q29.347656-0.397461 28.622559-0.075195Q27.897461 0.247070 26.973633 0.247070Q25.845703 0.247070 24.873535-0.145020Q23.901367-0.537109 23.187012-1.294434Q22.472656-2.051758 22.069824-3.152832Q21.666992-4.253906 21.666992-5.671875Q21.666992-6.960938 22.053711-8.019043Q22.440430-9.077148 23.149414-9.823730Q23.858398-10.570313 24.857422-10.983887Q25.856445-11.397461 27.081055-11.397461Q27.918945-11.397461 28.590332-11.209473Q29.261719-11.021484 29.895508-10.559570L29.895508-11.128906L31.893555-11.128906L31.893555-0.440430Q31.893555 2.202148 30.642090 3.555664Q29.390625 4.909180 26.748047 4.909180Q26.167969 4.909180 25.534180 4.823242Q24.900391 4.737305 24.282715 4.549316Q23.665039 4.361328 23.079590 4.071289Q22.494141 3.781250 22 3.362305L23.074219 1.740234Q23.396484 2.019531 23.810059 2.255859Q24.223633 2.492188 24.696289 2.658691Q25.168945 2.825195 25.673828 2.921875Q26.178711 3.018555 26.683594 3.018555Q27.510742 3.018555 28.117676 2.846680Q28.724609 2.674805 29.116699 2.239746Q29.508789 1.804688 29.702148 1.063477Q29.895508 0.322266 29.895508-0.816406L29.895508-0.977539M27.231445-1.493164Q27.725586-1.493164 28.133789-1.589844Q28.541992-1.686523 28.875000-1.842285Q29.208008-1.998047 29.460449-2.202148Q29.712891-2.406250 29.895508-2.631836L29.895508-8.722656Q29.347656-9.206055 28.633301-9.420898Q27.918945-9.635742 27.166992-9.635742Q26.458008-9.635742 25.834961-9.372559Q25.211914-9.109375 24.744629-8.604492Q24.277344-8.099609 24.008789-7.369141Q23.740234-6.638672 23.740234-5.693359Q23.740234-4.662109 23.998047-3.877930Q24.255859-3.093750 24.717773-2.562012Q25.179688-2.030273 25.824219-1.761719Q26.468750-1.493164 27.231445-1.493164ZM34.557617-11.128906L38.188477-11.128906L38.188477-1.847656L39.864258-1.847656L39.864258 0L34.579102 0L34.579102-1.847656L36.168945-1.847656L36.168945-9.281250L34.557617-9.281250L34.557617-11.128906M35.792969-15.071289Q35.792969-15.350586 35.905762-15.603027Q36.018555-15.855469 36.206543-16.043457Q36.394531-16.231445 36.652344-16.344238Q36.910156-16.457031 37.200195-16.457031Q37.479492-16.457031 37.731934-16.344238Q37.984375-16.231445 38.172363-16.043457Q38.360352-15.855469 38.473145-15.603027Q38.585938-15.350586 38.585938-15.071289Q38.585938-14.781250 38.473145-14.523438Q38.360352-14.265625 38.172363-14.066895Q37.984375-13.868164 37.731934-13.755371Q37.479492-13.642578 37.200195-13.642578Q36.910156-13.642578 36.652344-13.755371Q36.394531-13.868164 36.206543-14.066895Q36.018555-14.265625 35.905762-14.523438Q35.792969-14.781250 35.792969-15.071289ZM44.923828-11.128906L47.534180-11.128906L47.534180-9.506836L44.902344-9.506836L44.870117-3.083008Q44.870117-2.427734 45.020508-2.019531Q45.170898-1.611328 45.503906-1.455566Q45.836914-1.299805 46.255859-1.299805Q46.707031-1.299805 47.050781-1.380371Q47.394531-1.460938 47.802734-1.654297L48.264648-0.311523Q47.749023-0.042969 47.179688 0.112793Q46.610352 0.268555 45.836914 0.268555Q45.106445 0.268555 44.563965 0.091309Q44.021484-0.085938 43.650879-0.504883Q43.280273-0.923828 43.097656-1.627441Q42.915039-2.331055 42.915039-3.383789L42.947266-9.506836L41.174805-9.506836L41.174805-11.128906L42.968750-11.128906L42.968750-13.792969L44.923828-14.716797L44.923828-11.128906ZM56.428711-1.031250Q55.794922-0.440430 55.026855-0.064453Q54.258789 0.311523 53.281250 0.311523Q52.464844 0.311523 51.782715 0.053711Q51.100586-0.204102 50.606445-0.649902Q50.112305-1.095703 49.838379-1.686523Q49.564453-2.277344 49.564453-2.943359Q49.564453-3.652344 49.773926-4.200195Q49.983398-4.748047 50.332520-5.150879Q50.681641-5.553711 51.148926-5.827637Q51.616211-6.101563 52.126465-6.268066Q52.636719-6.434570 53.168457-6.504395Q53.700195-6.574219 54.183594-6.574219Q54.957031-6.574219 55.483398-6.525879Q56.009766-6.477539 56.439453-6.391602L56.450195-7.304688Q56.450195-7.895508 56.278320-8.330566Q56.106445-8.765625 55.794922-9.050293Q55.483398-9.334961 55.048340-9.474609Q54.613281-9.614258 54.076172-9.614258Q53.571289-9.614258 53.109375-9.544434Q52.647461-9.474609 52.244629-9.361816Q51.841797-9.249023 51.503418-9.104004Q51.165039-8.958984 50.928711-8.797852L50.273438-10.183594Q50.670898-10.441406 51.143555-10.661621Q51.616211-10.881836 52.137207-11.037598Q52.658203-11.193359 53.200684-11.284668Q53.743164-11.375977 54.269531-11.375977Q55.236328-11.375977 56.009766-11.145020Q56.783203-10.914063 57.320313-10.430664Q57.857422-9.947266 58.147461-9.200684Q58.437500-8.454102 58.437500-7.412109L58.426758-1.847656L59.662109-1.847656L59.662109 0L56.428711 0L56.428711-1.031250M53.721680-1.364258Q54.119141-1.364258 54.516602-1.460938Q54.914063-1.557617 55.268555-1.724121Q55.623047-1.890625 55.923828-2.110840Q56.224609-2.331055 56.428711-2.567383L56.439453-5.081055L54.119141-5.081055Q53.539063-5.081055 53.061035-4.952148Q52.583008-4.823242 52.233887-4.576172Q51.884766-4.329102 51.691406-3.963867Q51.498047-3.598633 51.498047-3.125977Q51.498047-2.685547 51.659180-2.357910Q51.820313-2.030273 52.115723-1.810059Q52.411133-1.589844 52.819336-1.477051Q53.227539-1.364258 53.721680-1.364258ZM61.832031-16.714844L65.441406-16.714844L65.441406-1.847656L67.117188-1.847656L67.117188 0L61.832031 0L61.832031-1.847656L63.443359-1.847656L63.443359-14.867188L61.832031-14.867188L61.832031-16.714844ZM67.998047 0Q67.998047 0 67.998047 0Q67.998047 0 67.998047 0ZM80.426758-1.031250Q79.792969-0.440430 79.024902-0.064453Q78.256836 0.311523 77.279297 0.311523Q76.462891 0.311523 75.780762 0.053711Q75.098633-0.204102 74.604492-0.649902Q74.110352-1.095703 73.836426-1.686523Q73.562500-2.277344 73.562500-2.943359Q73.562500-3.652344 73.771973-4.200195Q73.981445-4.748047 74.330566-5.150879Q74.679688-5.553711 75.146973-5.827637Q75.614258-6.101563 76.124512-6.268066Q76.634766-6.434570 77.166504-6.504395Q77.698242-6.574219 78.181641-6.574219Q78.955078-6.574219 79.481445-6.525879Q80.007813-6.477539 80.437500-6.391602L80.448242-7.304688Q80.448242-7.895508 80.276367-8.330566Q80.104492-8.765625 79.792969-9.050293Q79.481445-9.334961 79.046387-9.474609Q78.611328-9.614258 78.074219-9.614258Q77.569336-9.614258 77.107422-9.544434Q76.645508-9.474609 76.242676-9.361816Q75.839844-9.249023 75.501465-9.104004Q75.163086-8.958984 74.926758-8.797852L74.271484-10.183594Q74.668945-10.441406 75.141602-10.661621Q75.614258-10.881836 76.135254-11.037598Q76.656250-11.193359 77.198730-11.284668Q77.741211-11.375977 78.267578-11.375977Q79.234375-11.375977 80.007813-11.145020Q80.781250-10.914063 81.318359-10.430664Q81.855469-9.947266 82.145508-9.200684Q82.435547-8.454102 82.435547-7.412109L82.424805-1.847656L83.660156-1.847656L83.660156 0L80.426758 0L80.426758-1.031250M77.719727-1.364258Q78.117188-1.364258 78.514648-1.460938Q78.912109-1.557617 79.266602-1.724121Q79.621094-1.890625 79.921875-2.110840Q80.222656-2.331055 80.426758-2.567383L80.437500-5.081055L78.117188-5.081055Q77.537109-5.081055 77.059082-4.952148Q76.581055-4.823242 76.231934-4.576172Q75.882813-4.329102 75.689453-3.963867Q75.496094-3.598633 75.496094-3.125977Q75.496094-2.685547 75.657227-2.357910Q75.818359-2.030273 76.113770-1.810059Q76.409180-1.589844 76.817383-1.477051Q77.225586-1.364258 77.719727-1.364258ZM94.058594-0.977539Q93.510742-0.397461 92.785645-0.075195Q92.060547 0.247070 91.136719 0.247070Q90.008789 0.247070 89.036621-0.145020Q88.064453-0.537109 87.350098-1.294434Q86.635742-2.051758 86.232910-3.152832Q85.830078-4.253906 85.830078-5.671875Q85.830078-6.960938 86.216797-8.019043Q86.603516-9.077148 87.312500-9.823730Q88.021484-10.570313 89.020508-10.983887Q90.019531-11.397461 91.244141-11.397461Q92.082031-11.397461 92.753418-11.209473Q93.424805-11.021484 94.058594-10.559570L94.058594-11.128906L96.056641-11.128906L96.056641-0.440430Q96.056641 2.202148 94.805176 3.555664Q93.553711 4.909180 90.911133 4.909180Q90.331055 4.909180 89.697266 4.823242Q89.063477 4.737305 88.445801 4.549316Q87.828125 4.361328 87.242676 4.071289Q86.657227 3.781250 86.163086 3.362305L87.237305 1.740234Q87.559570 2.019531 87.973145 2.255859Q88.386719 2.492188 88.859375 2.658691Q89.332031 2.825195 89.836914 2.921875Q90.341797 3.018555 90.846680 3.018555Q91.673828 3.018555 92.280762 2.846680Q92.887695 2.674805 93.279785 2.239746Q93.671875 1.804688 93.865234 1.063477Q94.058594 0.322266 94.058594-0.816406L94.058594-0.977539M91.394531-1.493164Q91.888672-1.493164 92.296875-1.589844Q92.705078-1.686523 93.038086-1.842285Q93.371094-1.998047 93.623535-2.202148Q93.875977-2.406250 94.058594-2.631836L94.058594-8.722656Q93.510742-9.206055 92.796387-9.420898Q92.082031-9.635742 91.330078-9.635742Q90.621094-9.635742 89.998047-9.372559Q89.375000-9.109375 88.907715-8.604492Q88.440430-8.099609 88.171875-7.369141Q87.903320-6.638672 87.903320-5.693359Q87.903320-4.662109 88.161133-3.877930Q88.418945-3.093750 88.880859-2.562012Q89.342773-2.030273 89.987305-1.761719Q90.631836-1.493164 91.394531-1.493164ZM100.697266-5.306641Q100.697266-4.833984 100.767090-4.441895Q100.836914-4.049805 100.965820-3.695313Q101.363281-2.621094 102.238770-2.078613Q103.114258-1.536133 104.220703-1.536133Q105.090820-1.536133 105.912598-1.777832Q106.734375-2.019531 107.636719-2.535156L108.442383-1.170898Q107.346680-0.418945 106.240234-0.053711Q105.133789 0.311523 103.941406 0.311523Q102.813477 0.311523 101.852051-0.064453Q100.890625-0.440430 100.197754-1.181641Q99.504883-1.922852 99.112793-3.029297Q98.720703-4.135742 98.720703-5.607422Q98.720703-6.799805 99.053711-7.857910Q99.386719-8.916016 100.047363-9.705566Q100.708008-10.495117 101.685547-10.957031Q102.663086-11.418945 103.962891-11.418945Q105.219727-11.418945 106.062988-11.037598Q106.906250-10.656250 107.437988-10.027832Q107.969727-9.399414 108.243652-8.593750Q108.517578-7.788086 108.625000-6.950195Q108.678711-6.541992 108.694824-6.123047Q108.710938-5.704102 108.710938-5.306641L100.697266-5.306641M103.823242-9.743164Q103.125000-9.743164 102.604004-9.544434Q102.083008-9.345703 101.717773-8.975098Q101.352539-8.604492 101.132324-8.067383Q100.912109-7.530273 100.804688-6.864258L106.573242-6.864258Q106.530273-7.487305 106.374512-8.013672Q106.218750-8.540039 105.896484-8.926758Q105.574219-9.313477 105.069336-9.528320Q104.564453-9.743164 103.823242-9.743164ZM118.754883-1.847656L120.323242-1.847656L120.323242-6.928711Q120.323242-8.207031 119.673340-8.867676Q119.023438-9.528320 117.809570-9.528320Q117.111328-9.528320 116.402344-9.195313Q115.693359-8.862305 115.059570-8.368164L115.059570-1.847656L116.627930-1.847656L116.627930 0L111.428711 0L111.428711-1.847656L112.975586-1.847656L112.975586-9.281250L111.428711-9.281250L111.428711-11.128906L114.973633-11.128906L114.973633-9.818359L114.995117-9.818359Q115.349609-10.129883 115.752441-10.409180Q116.155273-10.688477 116.595703-10.892578Q117.036133-11.096680 117.514160-11.214844Q117.992188-11.333008 118.518555-11.333008Q119.410156-11.333008 120.129883-11.085938Q120.849609-10.838867 121.354492-10.333984Q121.859375-9.829102 122.133301-9.039551Q122.407227-8.250000 122.407227-7.175781L122.407227-1.847656L123.954102-1.847656L123.954102 0L118.754883 0L118.754883-1.847656ZM134.137695-8.164063Q133.686523-8.969727 132.993652-9.345703Q132.300781-9.721680 131.387695-9.721680Q130.689453-9.721680 130.077148-9.431641Q129.464844-9.141602 129.008301-8.604492Q128.551758-8.067383 128.288574-7.299316Q128.025391-6.531250 128.025391-5.585938Q128.025391-4.651367 128.288574-3.899414Q128.551758-3.147461 129.013672-2.615723Q129.475586-2.083984 130.082520-1.799316Q130.689453-1.514648 131.387695-1.514648Q132.418945-1.514648 133.181641-2.014160Q133.944336-2.513672 134.395508-3.480469L136.049805-2.664063Q135.727539-1.976563 135.254883-1.428711Q134.782227-0.880859 134.186035-0.494141Q133.589844-0.107422 132.875488 0.102051Q132.161133 0.311523 131.366211 0.311523Q130.206055 0.311523 129.223145-0.123535Q128.240234-0.558594 127.525879-1.342773Q126.811523-2.126953 126.414063-3.211914Q126.016602-4.296875 126.016602-5.585938Q126.016602-6.875000 126.435547-7.959961Q126.854492-9.044922 127.584961-9.823730Q128.315430-10.602539 129.292969-11.042969Q130.270508-11.483398 131.387695-11.483398Q132.440430-11.483398 133.380371-11.118164Q134.320313-10.752930 135.029297-10.011719L136.157227-10.011719L136.157227-8.164063L134.137695-8.164063ZM137.371094-11.128906L141.592773-11.128906L141.592773-9.281250L140.271484-9.281250L142.881836-2.180664L145.610352-9.281250L144.299805-9.281250L144.299805-11.128906L148.521484-11.128906L148.521484-9.281250L147.372070-9.281250L142.419922 3.211914L143.945313 3.211914L143.945313 5.059570L139.455078 5.059570L139.455078 3.211914L140.808594 3.211914L141.990234 0.150391L138.273438-9.281250L137.371094-9.281250L137.371094-11.128906Z" transform="matrix(1,0,0,1,166.5,187)" data-str-tmatrix="1,0,0,1,165.5,184.5" data-str-color="rgb(255,255,255)" data-str-text="digital agency" data-str-default_text="Enter Text" data-str-fontsize="22" data-str-font_family="Arvo" data-str-hastextedit="true" data-str-fonticons="true" data-str-bold="false" data-str-italic="false" data-str-data="" data-str-letter_spacing="0" data-str-use_path="false" data-str-txt_dy="0" data-lyt_name="line_2"/>
  </g>
  <g id="surface4">
  </g>
</svg>